<mxfile host="app.diagrams.net" modified="2021-09-10T06:11:41.889Z" agent="5.0 (Windows NT 10.0; Win64; x64) AppleWebKit/537.36 (KHTML, like Gecko) Chrome/92.0.4515.159 Safari/537.36 OPR/78.0.4093.184" etag="tcoYH6GQ9zmoqzfTJ9WO" version="15.1.4" type="github">
  <diagram id="xHVO4hZ9rjnwB3zidNy6" name="Page-1">
    <mxGraphModel dx="998" dy="548" grid="1" gridSize="10" guides="1" tooltips="1" connect="1" arrows="1" fold="1" page="1" pageScale="1" pageWidth="1654" pageHeight="2336" math="0" shadow="0">
      <root>
        <mxCell id="0" />
        <mxCell id="1" parent="0" />
        <mxCell id="xl6XmFLRlLza4RYkkyJD-14" value="customers" style="swimlane;fontStyle=0;childLayout=stackLayout;horizontal=1;startSize=26;horizontalStack=0;resizeParent=1;resizeParentMax=0;resizeLast=0;collapsible=1;marginBottom=0;align=center;fontSize=14;" vertex="1" parent="1">
          <mxGeometry x="30" y="30" width="160" height="188" as="geometry" />
        </mxCell>
        <mxCell id="xl6XmFLRlLza4RYkkyJD-15" value="id" style="text;strokeColor=none;fillColor=none;spacingLeft=4;spacingRight=4;overflow=hidden;rotatable=0;points=[[0,0.5],[1,0.5]];portConstraint=eastwest;fontSize=12;fontStyle=1" vertex="1" parent="xl6XmFLRlLza4RYkkyJD-14">
          <mxGeometry y="26" width="160" height="30" as="geometry" />
        </mxCell>
        <mxCell id="xl6XmFLRlLza4RYkkyJD-16" value="name&#xa;" style="text;strokeColor=none;fillColor=none;spacingLeft=4;spacingRight=4;overflow=hidden;rotatable=0;points=[[0,0.5],[1,0.5]];portConstraint=eastwest;fontSize=12;" vertex="1" parent="xl6XmFLRlLza4RYkkyJD-14">
          <mxGeometry y="56" width="160" height="30" as="geometry" />
        </mxCell>
        <mxCell id="xl6XmFLRlLza4RYkkyJD-17" value="address" style="text;strokeColor=none;fillColor=none;spacingLeft=4;spacingRight=4;overflow=hidden;rotatable=0;points=[[0,0.5],[1,0.5]];portConstraint=eastwest;fontSize=12;" vertex="1" parent="xl6XmFLRlLza4RYkkyJD-14">
          <mxGeometry y="86" width="160" height="34" as="geometry" />
        </mxCell>
        <mxCell id="xl6XmFLRlLza4RYkkyJD-18" value="created_at" style="text;strokeColor=none;fillColor=none;spacingLeft=4;spacingRight=4;overflow=hidden;rotatable=0;points=[[0,0.5],[1,0.5]];portConstraint=eastwest;fontSize=12;" vertex="1" parent="xl6XmFLRlLza4RYkkyJD-14">
          <mxGeometry y="120" width="160" height="34" as="geometry" />
        </mxCell>
        <mxCell id="xl6XmFLRlLza4RYkkyJD-19" value="updated_at" style="text;strokeColor=none;fillColor=none;spacingLeft=4;spacingRight=4;overflow=hidden;rotatable=0;points=[[0,0.5],[1,0.5]];portConstraint=eastwest;fontSize=12;" vertex="1" parent="xl6XmFLRlLza4RYkkyJD-14">
          <mxGeometry y="154" width="160" height="34" as="geometry" />
        </mxCell>
        <mxCell id="xl6XmFLRlLza4RYkkyJD-20" value="orders" style="swimlane;fontStyle=0;childLayout=stackLayout;horizontal=1;startSize=26;horizontalStack=0;resizeParent=1;resizeParentMax=0;resizeLast=0;collapsible=1;marginBottom=0;align=center;fontSize=14;" vertex="1" parent="1">
          <mxGeometry x="280" y="30" width="160" height="176" as="geometry" />
        </mxCell>
        <mxCell id="xl6XmFLRlLza4RYkkyJD-21" value="id" style="text;strokeColor=none;fillColor=none;spacingLeft=4;spacingRight=4;overflow=hidden;rotatable=0;points=[[0,0.5],[1,0.5]];portConstraint=eastwest;fontSize=12;fontStyle=1" vertex="1" parent="xl6XmFLRlLza4RYkkyJD-20">
          <mxGeometry y="26" width="160" height="30" as="geometry" />
        </mxCell>
        <mxCell id="xl6XmFLRlLza4RYkkyJD-22" value="user_id" style="text;strokeColor=none;fillColor=none;spacingLeft=4;spacingRight=4;overflow=hidden;rotatable=0;points=[[0,0.5],[1,0.5]];portConstraint=eastwest;fontSize=12;" vertex="1" parent="xl6XmFLRlLza4RYkkyJD-20">
          <mxGeometry y="56" width="160" height="30" as="geometry" />
        </mxCell>
        <mxCell id="xl6XmFLRlLza4RYkkyJD-23" value="customer_id" style="text;strokeColor=none;fillColor=none;spacingLeft=4;spacingRight=4;overflow=hidden;rotatable=0;points=[[0,0.5],[1,0.5]];portConstraint=eastwest;fontSize=12;" vertex="1" parent="xl6XmFLRlLza4RYkkyJD-20">
          <mxGeometry y="86" width="160" height="30" as="geometry" />
        </mxCell>
        <mxCell id="xl6XmFLRlLza4RYkkyJD-24" value="status" style="text;strokeColor=none;fillColor=none;spacingLeft=4;spacingRight=4;overflow=hidden;rotatable=0;points=[[0,0.5],[1,0.5]];portConstraint=eastwest;fontSize=12;" vertex="1" parent="xl6XmFLRlLza4RYkkyJD-20">
          <mxGeometry y="116" width="160" height="30" as="geometry" />
        </mxCell>
        <mxCell id="xl6XmFLRlLza4RYkkyJD-25" value="created_at" style="text;strokeColor=none;fillColor=none;spacingLeft=4;spacingRight=4;overflow=hidden;rotatable=0;points=[[0,0.5],[1,0.5]];portConstraint=eastwest;fontSize=12;" vertex="1" parent="xl6XmFLRlLza4RYkkyJD-20">
          <mxGeometry y="146" width="160" height="30" as="geometry" />
        </mxCell>
        <mxCell id="xl6XmFLRlLza4RYkkyJD-39" value="order_items" style="swimlane;fontStyle=0;childLayout=stackLayout;horizontal=1;startSize=26;horizontalStack=0;resizeParent=1;resizeParentMax=0;resizeLast=0;collapsible=1;marginBottom=0;align=center;fontSize=14;" vertex="1" parent="1">
          <mxGeometry x="520" y="30" width="160" height="146" as="geometry" />
        </mxCell>
        <mxCell id="xl6XmFLRlLza4RYkkyJD-40" value="id" style="text;strokeColor=none;fillColor=none;spacingLeft=4;spacingRight=4;overflow=hidden;rotatable=0;points=[[0,0.5],[1,0.5]];portConstraint=eastwest;fontSize=12;fontStyle=1" vertex="1" parent="xl6XmFLRlLza4RYkkyJD-39">
          <mxGeometry y="26" width="160" height="30" as="geometry" />
        </mxCell>
        <mxCell id="xl6XmFLRlLza4RYkkyJD-41" value="order_id" style="text;strokeColor=none;fillColor=none;spacingLeft=4;spacingRight=4;overflow=hidden;rotatable=0;points=[[0,0.5],[1,0.5]];portConstraint=eastwest;fontSize=12;" vertex="1" parent="xl6XmFLRlLza4RYkkyJD-39">
          <mxGeometry y="56" width="160" height="30" as="geometry" />
        </mxCell>
        <mxCell id="xl6XmFLRlLza4RYkkyJD-42" value="product_id" style="text;strokeColor=none;fillColor=none;spacingLeft=4;spacingRight=4;overflow=hidden;rotatable=0;points=[[0,0.5],[1,0.5]];portConstraint=eastwest;fontSize=12;" vertex="1" parent="xl6XmFLRlLza4RYkkyJD-39">
          <mxGeometry y="86" width="160" height="30" as="geometry" />
        </mxCell>
        <mxCell id="xl6XmFLRlLza4RYkkyJD-43" value="quantily" style="text;strokeColor=none;fillColor=none;spacingLeft=4;spacingRight=4;overflow=hidden;rotatable=0;points=[[0,0.5],[1,0.5]];portConstraint=eastwest;fontSize=12;" vertex="1" parent="xl6XmFLRlLza4RYkkyJD-39">
          <mxGeometry y="116" width="160" height="30" as="geometry" />
        </mxCell>
        <mxCell id="xl6XmFLRlLza4RYkkyJD-45" value="products" style="swimlane;fontStyle=0;childLayout=stackLayout;horizontal=1;startSize=26;horizontalStack=0;resizeParent=1;resizeParentMax=0;resizeLast=0;collapsible=1;marginBottom=0;align=center;fontSize=14;" vertex="1" parent="1">
          <mxGeometry x="780" y="30" width="160" height="296" as="geometry" />
        </mxCell>
        <mxCell id="xl6XmFLRlLza4RYkkyJD-46" value="id" style="text;strokeColor=none;fillColor=none;spacingLeft=4;spacingRight=4;overflow=hidden;rotatable=0;points=[[0,0.5],[1,0.5]];portConstraint=eastwest;fontSize=12;fontStyle=1" vertex="1" parent="xl6XmFLRlLza4RYkkyJD-45">
          <mxGeometry y="26" width="160" height="30" as="geometry" />
        </mxCell>
        <mxCell id="xl6XmFLRlLza4RYkkyJD-47" value="name" style="text;strokeColor=none;fillColor=none;spacingLeft=4;spacingRight=4;overflow=hidden;rotatable=0;points=[[0,0.5],[1,0.5]];portConstraint=eastwest;fontSize=12;" vertex="1" parent="xl6XmFLRlLza4RYkkyJD-45">
          <mxGeometry y="56" width="160" height="30" as="geometry" />
        </mxCell>
        <mxCell id="xl6XmFLRlLza4RYkkyJD-48" value="price" style="text;strokeColor=none;fillColor=none;spacingLeft=4;spacingRight=4;overflow=hidden;rotatable=0;points=[[0,0.5],[1,0.5]];portConstraint=eastwest;fontSize=12;" vertex="1" parent="xl6XmFLRlLza4RYkkyJD-45">
          <mxGeometry y="86" width="160" height="30" as="geometry" />
        </mxCell>
        <mxCell id="xl6XmFLRlLza4RYkkyJD-49" value="feature_image" style="text;strokeColor=none;fillColor=none;spacingLeft=4;spacingRight=4;overflow=hidden;rotatable=0;points=[[0,0.5],[1,0.5]];portConstraint=eastwest;fontSize=12;" vertex="1" parent="xl6XmFLRlLza4RYkkyJD-45">
          <mxGeometry y="116" width="160" height="30" as="geometry" />
        </mxCell>
        <mxCell id="xl6XmFLRlLza4RYkkyJD-50" value="content" style="text;strokeColor=none;fillColor=none;spacingLeft=4;spacingRight=4;overflow=hidden;rotatable=0;points=[[0,0.5],[1,0.5]];portConstraint=eastwest;fontSize=12;" vertex="1" parent="xl6XmFLRlLza4RYkkyJD-45">
          <mxGeometry y="146" width="160" height="30" as="geometry" />
        </mxCell>
        <mxCell id="xl6XmFLRlLza4RYkkyJD-51" value="user_id" style="text;strokeColor=none;fillColor=none;spacingLeft=4;spacingRight=4;overflow=hidden;rotatable=0;points=[[0,0.5],[1,0.5]];portConstraint=eastwest;fontSize=12;" vertex="1" parent="xl6XmFLRlLza4RYkkyJD-45">
          <mxGeometry y="176" width="160" height="30" as="geometry" />
        </mxCell>
        <mxCell id="xl6XmFLRlLza4RYkkyJD-52" value="category_id" style="text;strokeColor=none;fillColor=none;spacingLeft=4;spacingRight=4;overflow=hidden;rotatable=0;points=[[0,0.5],[1,0.5]];portConstraint=eastwest;fontSize=12;" vertex="1" parent="xl6XmFLRlLza4RYkkyJD-45">
          <mxGeometry y="206" width="160" height="30" as="geometry" />
        </mxCell>
        <mxCell id="xl6XmFLRlLza4RYkkyJD-53" value="created_at" style="text;strokeColor=none;fillColor=none;spacingLeft=4;spacingRight=4;overflow=hidden;rotatable=0;points=[[0,0.5],[1,0.5]];portConstraint=eastwest;fontSize=12;" vertex="1" parent="xl6XmFLRlLza4RYkkyJD-45">
          <mxGeometry y="236" width="160" height="30" as="geometry" />
        </mxCell>
        <mxCell id="xl6XmFLRlLza4RYkkyJD-54" value="updated_at" style="text;strokeColor=none;fillColor=none;spacingLeft=4;spacingRight=4;overflow=hidden;rotatable=0;points=[[0,0.5],[1,0.5]];portConstraint=eastwest;fontSize=12;" vertex="1" parent="xl6XmFLRlLza4RYkkyJD-45">
          <mxGeometry y="266" width="160" height="30" as="geometry" />
        </mxCell>
        <mxCell id="xl6XmFLRlLza4RYkkyJD-55" value="product_tag" style="swimlane;fontStyle=0;childLayout=stackLayout;horizontal=1;startSize=26;horizontalStack=0;resizeParent=1;resizeParentMax=0;resizeLast=0;collapsible=1;marginBottom=0;align=center;fontSize=14;" vertex="1" parent="1">
          <mxGeometry x="1090" y="30" width="160" height="176" as="geometry" />
        </mxCell>
        <mxCell id="xl6XmFLRlLza4RYkkyJD-56" value="id" style="text;strokeColor=none;fillColor=none;spacingLeft=4;spacingRight=4;overflow=hidden;rotatable=0;points=[[0,0.5],[1,0.5]];portConstraint=eastwest;fontSize=12;fontStyle=1" vertex="1" parent="xl6XmFLRlLza4RYkkyJD-55">
          <mxGeometry y="26" width="160" height="30" as="geometry" />
        </mxCell>
        <mxCell id="xl6XmFLRlLza4RYkkyJD-57" value="product_id" style="text;strokeColor=none;fillColor=none;spacingLeft=4;spacingRight=4;overflow=hidden;rotatable=0;points=[[0,0.5],[1,0.5]];portConstraint=eastwest;fontSize=12;" vertex="1" parent="xl6XmFLRlLza4RYkkyJD-55">
          <mxGeometry y="56" width="160" height="30" as="geometry" />
        </mxCell>
        <mxCell id="xl6XmFLRlLza4RYkkyJD-58" value="tag_id" style="text;strokeColor=none;fillColor=none;spacingLeft=4;spacingRight=4;overflow=hidden;rotatable=0;points=[[0,0.5],[1,0.5]];portConstraint=eastwest;fontSize=12;" vertex="1" parent="xl6XmFLRlLza4RYkkyJD-55">
          <mxGeometry y="86" width="160" height="30" as="geometry" />
        </mxCell>
        <mxCell id="xl6XmFLRlLza4RYkkyJD-59" value="created_at" style="text;strokeColor=none;fillColor=none;spacingLeft=4;spacingRight=4;overflow=hidden;rotatable=0;points=[[0,0.5],[1,0.5]];portConstraint=eastwest;fontSize=12;" vertex="1" parent="xl6XmFLRlLza4RYkkyJD-55">
          <mxGeometry y="116" width="160" height="30" as="geometry" />
        </mxCell>
        <mxCell id="xl6XmFLRlLza4RYkkyJD-60" value="updated_at" style="text;strokeColor=none;fillColor=none;spacingLeft=4;spacingRight=4;overflow=hidden;rotatable=0;points=[[0,0.5],[1,0.5]];portConstraint=eastwest;fontSize=12;" vertex="1" parent="xl6XmFLRlLza4RYkkyJD-55">
          <mxGeometry y="146" width="160" height="30" as="geometry" />
        </mxCell>
        <mxCell id="xl6XmFLRlLza4RYkkyJD-61" value="tag" style="swimlane;fontStyle=0;childLayout=stackLayout;horizontal=1;startSize=26;horizontalStack=0;resizeParent=1;resizeParentMax=0;resizeLast=0;collapsible=1;marginBottom=0;align=center;fontSize=14;" vertex="1" parent="1">
          <mxGeometry x="1430" y="30" width="160" height="146" as="geometry" />
        </mxCell>
        <mxCell id="xl6XmFLRlLza4RYkkyJD-62" value="id" style="text;strokeColor=none;fillColor=none;spacingLeft=4;spacingRight=4;overflow=hidden;rotatable=0;points=[[0,0.5],[1,0.5]];portConstraint=eastwest;fontSize=12;fontStyle=1" vertex="1" parent="xl6XmFLRlLza4RYkkyJD-61">
          <mxGeometry y="26" width="160" height="30" as="geometry" />
        </mxCell>
        <mxCell id="xl6XmFLRlLza4RYkkyJD-63" value="name" style="text;strokeColor=none;fillColor=none;spacingLeft=4;spacingRight=4;overflow=hidden;rotatable=0;points=[[0,0.5],[1,0.5]];portConstraint=eastwest;fontSize=12;" vertex="1" parent="xl6XmFLRlLza4RYkkyJD-61">
          <mxGeometry y="56" width="160" height="30" as="geometry" />
        </mxCell>
        <mxCell id="xl6XmFLRlLza4RYkkyJD-64" value="created_at" style="text;strokeColor=none;fillColor=none;spacingLeft=4;spacingRight=4;overflow=hidden;rotatable=0;points=[[0,0.5],[1,0.5]];portConstraint=eastwest;fontSize=12;" vertex="1" parent="xl6XmFLRlLza4RYkkyJD-61">
          <mxGeometry y="86" width="160" height="30" as="geometry" />
        </mxCell>
        <mxCell id="xl6XmFLRlLza4RYkkyJD-65" value="updated_at" style="text;strokeColor=none;fillColor=none;spacingLeft=4;spacingRight=4;overflow=hidden;rotatable=0;points=[[0,0.5],[1,0.5]];portConstraint=eastwest;fontSize=12;" vertex="1" parent="xl6XmFLRlLza4RYkkyJD-61">
          <mxGeometry y="116" width="160" height="30" as="geometry" />
        </mxCell>
        <mxCell id="xl6XmFLRlLza4RYkkyJD-66" value="categories" style="swimlane;fontStyle=0;childLayout=stackLayout;horizontal=1;startSize=26;horizontalStack=0;resizeParent=1;resizeParentMax=0;resizeLast=0;collapsible=1;marginBottom=0;align=center;fontSize=14;" vertex="1" parent="1">
          <mxGeometry x="310" y="351" width="160" height="176" as="geometry" />
        </mxCell>
        <mxCell id="xl6XmFLRlLza4RYkkyJD-67" value="id" style="text;strokeColor=none;fillColor=none;spacingLeft=4;spacingRight=4;overflow=hidden;rotatable=0;points=[[0,0.5],[1,0.5]];portConstraint=eastwest;fontSize=12;fontStyle=1" vertex="1" parent="xl6XmFLRlLza4RYkkyJD-66">
          <mxGeometry y="26" width="160" height="30" as="geometry" />
        </mxCell>
        <mxCell id="xl6XmFLRlLza4RYkkyJD-68" value="name" style="text;strokeColor=none;fillColor=none;spacingLeft=4;spacingRight=4;overflow=hidden;rotatable=0;points=[[0,0.5],[1,0.5]];portConstraint=eastwest;fontSize=12;" vertex="1" parent="xl6XmFLRlLza4RYkkyJD-66">
          <mxGeometry y="56" width="160" height="30" as="geometry" />
        </mxCell>
        <mxCell id="xl6XmFLRlLza4RYkkyJD-69" value="parent_id" style="text;strokeColor=none;fillColor=none;spacingLeft=4;spacingRight=4;overflow=hidden;rotatable=0;points=[[0,0.5],[1,0.5]];portConstraint=eastwest;fontSize=12;" vertex="1" parent="xl6XmFLRlLza4RYkkyJD-66">
          <mxGeometry y="86" width="160" height="30" as="geometry" />
        </mxCell>
        <mxCell id="xl6XmFLRlLza4RYkkyJD-70" value="created_at" style="text;strokeColor=none;fillColor=none;spacingLeft=4;spacingRight=4;overflow=hidden;rotatable=0;points=[[0,0.5],[1,0.5]];portConstraint=eastwest;fontSize=12;" vertex="1" parent="xl6XmFLRlLza4RYkkyJD-66">
          <mxGeometry y="116" width="160" height="30" as="geometry" />
        </mxCell>
        <mxCell id="xl6XmFLRlLza4RYkkyJD-71" value="updated_at" style="text;strokeColor=none;fillColor=none;spacingLeft=4;spacingRight=4;overflow=hidden;rotatable=0;points=[[0,0.5],[1,0.5]];portConstraint=eastwest;fontSize=12;" vertex="1" parent="xl6XmFLRlLza4RYkkyJD-66">
          <mxGeometry y="146" width="160" height="30" as="geometry" />
        </mxCell>
        <mxCell id="xl6XmFLRlLza4RYkkyJD-72" value="users" style="swimlane;fontStyle=0;childLayout=stackLayout;horizontal=1;startSize=26;horizontalStack=0;resizeParent=1;resizeParentMax=0;resizeLast=0;collapsible=1;marginBottom=0;align=center;fontSize=14;" vertex="1" parent="1">
          <mxGeometry x="1110" y="351" width="160" height="206" as="geometry" />
        </mxCell>
        <mxCell id="xl6XmFLRlLza4RYkkyJD-73" value="id" style="text;strokeColor=none;fillColor=none;spacingLeft=4;spacingRight=4;overflow=hidden;rotatable=0;points=[[0,0.5],[1,0.5]];portConstraint=eastwest;fontSize=12;fontStyle=1" vertex="1" parent="xl6XmFLRlLza4RYkkyJD-72">
          <mxGeometry y="26" width="160" height="30" as="geometry" />
        </mxCell>
        <mxCell id="xl6XmFLRlLza4RYkkyJD-74" value="name" style="text;strokeColor=none;fillColor=none;spacingLeft=4;spacingRight=4;overflow=hidden;rotatable=0;points=[[0,0.5],[1,0.5]];portConstraint=eastwest;fontSize=12;" vertex="1" parent="xl6XmFLRlLza4RYkkyJD-72">
          <mxGeometry y="56" width="160" height="30" as="geometry" />
        </mxCell>
        <mxCell id="xl6XmFLRlLza4RYkkyJD-75" value="email" style="text;strokeColor=none;fillColor=none;spacingLeft=4;spacingRight=4;overflow=hidden;rotatable=0;points=[[0,0.5],[1,0.5]];portConstraint=eastwest;fontSize=12;" vertex="1" parent="xl6XmFLRlLza4RYkkyJD-72">
          <mxGeometry y="86" width="160" height="30" as="geometry" />
        </mxCell>
        <mxCell id="xl6XmFLRlLza4RYkkyJD-76" value="password" style="text;strokeColor=none;fillColor=none;spacingLeft=4;spacingRight=4;overflow=hidden;rotatable=0;points=[[0,0.5],[1,0.5]];portConstraint=eastwest;fontSize=12;" vertex="1" parent="xl6XmFLRlLza4RYkkyJD-72">
          <mxGeometry y="116" width="160" height="30" as="geometry" />
        </mxCell>
        <mxCell id="xl6XmFLRlLza4RYkkyJD-77" value="created_at" style="text;strokeColor=none;fillColor=none;spacingLeft=4;spacingRight=4;overflow=hidden;rotatable=0;points=[[0,0.5],[1,0.5]];portConstraint=eastwest;fontSize=12;" vertex="1" parent="xl6XmFLRlLza4RYkkyJD-72">
          <mxGeometry y="146" width="160" height="30" as="geometry" />
        </mxCell>
        <mxCell id="xl6XmFLRlLza4RYkkyJD-78" value="updated_at" style="text;strokeColor=none;fillColor=none;spacingLeft=4;spacingRight=4;overflow=hidden;rotatable=0;points=[[0,0.5],[1,0.5]];portConstraint=eastwest;fontSize=12;" vertex="1" parent="xl6XmFLRlLza4RYkkyJD-72">
          <mxGeometry y="176" width="160" height="30" as="geometry" />
        </mxCell>
        <mxCell id="xl6XmFLRlLza4RYkkyJD-79" value="product_image" style="swimlane;fontStyle=0;childLayout=stackLayout;horizontal=1;startSize=26;horizontalStack=0;resizeParent=1;resizeParentMax=0;resizeLast=0;collapsible=1;marginBottom=0;align=center;fontSize=14;" vertex="1" parent="1">
          <mxGeometry x="980" y="640" width="160" height="176" as="geometry" />
        </mxCell>
        <mxCell id="xl6XmFLRlLza4RYkkyJD-80" value="id" style="text;strokeColor=none;fillColor=none;spacingLeft=4;spacingRight=4;overflow=hidden;rotatable=0;points=[[0,0.5],[1,0.5]];portConstraint=eastwest;fontSize=12;fontStyle=1" vertex="1" parent="xl6XmFLRlLza4RYkkyJD-79">
          <mxGeometry y="26" width="160" height="30" as="geometry" />
        </mxCell>
        <mxCell id="xl6XmFLRlLza4RYkkyJD-81" value="image" style="text;strokeColor=none;fillColor=none;spacingLeft=4;spacingRight=4;overflow=hidden;rotatable=0;points=[[0,0.5],[1,0.5]];portConstraint=eastwest;fontSize=12;" vertex="1" parent="xl6XmFLRlLza4RYkkyJD-79">
          <mxGeometry y="56" width="160" height="30" as="geometry" />
        </mxCell>
        <mxCell id="xl6XmFLRlLza4RYkkyJD-82" value="product_id" style="text;strokeColor=none;fillColor=none;spacingLeft=4;spacingRight=4;overflow=hidden;rotatable=0;points=[[0,0.5],[1,0.5]];portConstraint=eastwest;fontSize=12;" vertex="1" parent="xl6XmFLRlLza4RYkkyJD-79">
          <mxGeometry y="86" width="160" height="30" as="geometry" />
        </mxCell>
        <mxCell id="xl6XmFLRlLza4RYkkyJD-83" value="created_id" style="text;strokeColor=none;fillColor=none;spacingLeft=4;spacingRight=4;overflow=hidden;rotatable=0;points=[[0,0.5],[1,0.5]];portConstraint=eastwest;fontSize=12;" vertex="1" parent="xl6XmFLRlLza4RYkkyJD-79">
          <mxGeometry y="116" width="160" height="30" as="geometry" />
        </mxCell>
        <mxCell id="xl6XmFLRlLza4RYkkyJD-84" value="updated_at" style="text;strokeColor=none;fillColor=none;spacingLeft=4;spacingRight=4;overflow=hidden;rotatable=0;points=[[0,0.5],[1,0.5]];portConstraint=eastwest;fontSize=12;" vertex="1" parent="xl6XmFLRlLza4RYkkyJD-79">
          <mxGeometry y="146" width="160" height="30" as="geometry" />
        </mxCell>
        <mxCell id="xl6XmFLRlLza4RYkkyJD-85" value="menus" style="swimlane;fontStyle=0;childLayout=stackLayout;horizontal=1;startSize=26;horizontalStack=0;resizeParent=1;resizeParentMax=0;resizeLast=0;collapsible=1;marginBottom=0;align=center;fontSize=14;" vertex="1" parent="1">
          <mxGeometry x="70" y="640" width="160" height="176" as="geometry" />
        </mxCell>
        <mxCell id="xl6XmFLRlLza4RYkkyJD-86" value="id" style="text;strokeColor=none;fillColor=none;spacingLeft=4;spacingRight=4;overflow=hidden;rotatable=0;points=[[0,0.5],[1,0.5]];portConstraint=eastwest;fontSize=12;fontStyle=1" vertex="1" parent="xl6XmFLRlLza4RYkkyJD-85">
          <mxGeometry y="26" width="160" height="30" as="geometry" />
        </mxCell>
        <mxCell id="xl6XmFLRlLza4RYkkyJD-87" value="name" style="text;strokeColor=none;fillColor=none;spacingLeft=4;spacingRight=4;overflow=hidden;rotatable=0;points=[[0,0.5],[1,0.5]];portConstraint=eastwest;fontSize=12;" vertex="1" parent="xl6XmFLRlLza4RYkkyJD-85">
          <mxGeometry y="56" width="160" height="30" as="geometry" />
        </mxCell>
        <mxCell id="xl6XmFLRlLza4RYkkyJD-88" value="parent_id" style="text;strokeColor=none;fillColor=none;spacingLeft=4;spacingRight=4;overflow=hidden;rotatable=0;points=[[0,0.5],[1,0.5]];portConstraint=eastwest;fontSize=12;" vertex="1" parent="xl6XmFLRlLza4RYkkyJD-85">
          <mxGeometry y="86" width="160" height="30" as="geometry" />
        </mxCell>
        <mxCell id="xl6XmFLRlLza4RYkkyJD-89" value="created_at" style="text;strokeColor=none;fillColor=none;spacingLeft=4;spacingRight=4;overflow=hidden;rotatable=0;points=[[0,0.5],[1,0.5]];portConstraint=eastwest;fontSize=12;" vertex="1" parent="xl6XmFLRlLza4RYkkyJD-85">
          <mxGeometry y="116" width="160" height="30" as="geometry" />
        </mxCell>
        <mxCell id="xl6XmFLRlLza4RYkkyJD-90" value="updated_at" style="text;strokeColor=none;fillColor=none;spacingLeft=4;spacingRight=4;overflow=hidden;rotatable=0;points=[[0,0.5],[1,0.5]];portConstraint=eastwest;fontSize=12;" vertex="1" parent="xl6XmFLRlLza4RYkkyJD-85">
          <mxGeometry y="146" width="160" height="30" as="geometry" />
        </mxCell>
        <mxCell id="xl6XmFLRlLza4RYkkyJD-91" value="sliders" style="swimlane;fontStyle=0;childLayout=stackLayout;horizontal=1;startSize=26;horizontalStack=0;resizeParent=1;resizeParentMax=0;resizeLast=0;collapsible=1;marginBottom=0;align=center;fontSize=14;" vertex="1" parent="1">
          <mxGeometry x="360" y="640" width="160" height="206" as="geometry" />
        </mxCell>
        <mxCell id="xl6XmFLRlLza4RYkkyJD-92" value="id" style="text;strokeColor=none;fillColor=none;spacingLeft=4;spacingRight=4;overflow=hidden;rotatable=0;points=[[0,0.5],[1,0.5]];portConstraint=eastwest;fontSize=12;fontStyle=1" vertex="1" parent="xl6XmFLRlLza4RYkkyJD-91">
          <mxGeometry y="26" width="160" height="30" as="geometry" />
        </mxCell>
        <mxCell id="xl6XmFLRlLza4RYkkyJD-93" value="name" style="text;strokeColor=none;fillColor=none;spacingLeft=4;spacingRight=4;overflow=hidden;rotatable=0;points=[[0,0.5],[1,0.5]];portConstraint=eastwest;fontSize=12;" vertex="1" parent="xl6XmFLRlLza4RYkkyJD-91">
          <mxGeometry y="56" width="160" height="30" as="geometry" />
        </mxCell>
        <mxCell id="xl6XmFLRlLza4RYkkyJD-94" value="description" style="text;strokeColor=none;fillColor=none;spacingLeft=4;spacingRight=4;overflow=hidden;rotatable=0;points=[[0,0.5],[1,0.5]];portConstraint=eastwest;fontSize=12;" vertex="1" parent="xl6XmFLRlLza4RYkkyJD-91">
          <mxGeometry y="86" width="160" height="30" as="geometry" />
        </mxCell>
        <mxCell id="xl6XmFLRlLza4RYkkyJD-95" value="image" style="text;strokeColor=none;fillColor=none;spacingLeft=4;spacingRight=4;overflow=hidden;rotatable=0;points=[[0,0.5],[1,0.5]];portConstraint=eastwest;fontSize=12;" vertex="1" parent="xl6XmFLRlLza4RYkkyJD-91">
          <mxGeometry y="116" width="160" height="30" as="geometry" />
        </mxCell>
        <mxCell id="xl6XmFLRlLza4RYkkyJD-96" value="created_at" style="text;strokeColor=none;fillColor=none;spacingLeft=4;spacingRight=4;overflow=hidden;rotatable=0;points=[[0,0.5],[1,0.5]];portConstraint=eastwest;fontSize=12;" vertex="1" parent="xl6XmFLRlLza4RYkkyJD-91">
          <mxGeometry y="146" width="160" height="30" as="geometry" />
        </mxCell>
        <mxCell id="xl6XmFLRlLza4RYkkyJD-97" value="updated_at" style="text;strokeColor=none;fillColor=none;spacingLeft=4;spacingRight=4;overflow=hidden;rotatable=0;points=[[0,0.5],[1,0.5]];portConstraint=eastwest;fontSize=12;" vertex="1" parent="xl6XmFLRlLza4RYkkyJD-91">
          <mxGeometry y="176" width="160" height="30" as="geometry" />
        </mxCell>
        <mxCell id="xl6XmFLRlLza4RYkkyJD-98" value="settings" style="swimlane;fontStyle=0;childLayout=stackLayout;horizontal=1;startSize=26;horizontalStack=0;resizeParent=1;resizeParentMax=0;resizeLast=0;collapsible=1;marginBottom=0;align=center;fontSize=14;" vertex="1" parent="1">
          <mxGeometry x="660" y="640" width="160" height="176" as="geometry" />
        </mxCell>
        <mxCell id="xl6XmFLRlLza4RYkkyJD-99" value="id" style="text;strokeColor=none;fillColor=none;spacingLeft=4;spacingRight=4;overflow=hidden;rotatable=0;points=[[0,0.5],[1,0.5]];portConstraint=eastwest;fontSize=12;fontStyle=1" vertex="1" parent="xl6XmFLRlLza4RYkkyJD-98">
          <mxGeometry y="26" width="160" height="30" as="geometry" />
        </mxCell>
        <mxCell id="xl6XmFLRlLza4RYkkyJD-100" value="config_key" style="text;strokeColor=none;fillColor=none;spacingLeft=4;spacingRight=4;overflow=hidden;rotatable=0;points=[[0,0.5],[1,0.5]];portConstraint=eastwest;fontSize=12;" vertex="1" parent="xl6XmFLRlLza4RYkkyJD-98">
          <mxGeometry y="56" width="160" height="30" as="geometry" />
        </mxCell>
        <mxCell id="xl6XmFLRlLza4RYkkyJD-101" value="config_value" style="text;strokeColor=none;fillColor=none;spacingLeft=4;spacingRight=4;overflow=hidden;rotatable=0;points=[[0,0.5],[1,0.5]];portConstraint=eastwest;fontSize=12;" vertex="1" parent="xl6XmFLRlLza4RYkkyJD-98">
          <mxGeometry y="86" width="160" height="30" as="geometry" />
        </mxCell>
        <mxCell id="xl6XmFLRlLza4RYkkyJD-102" value="created_at" style="text;strokeColor=none;fillColor=none;spacingLeft=4;spacingRight=4;overflow=hidden;rotatable=0;points=[[0,0.5],[1,0.5]];portConstraint=eastwest;fontSize=12;" vertex="1" parent="xl6XmFLRlLza4RYkkyJD-98">
          <mxGeometry y="116" width="160" height="30" as="geometry" />
        </mxCell>
        <mxCell id="xl6XmFLRlLza4RYkkyJD-103" value="updated_at" style="text;strokeColor=none;fillColor=none;spacingLeft=4;spacingRight=4;overflow=hidden;rotatable=0;points=[[0,0.5],[1,0.5]];portConstraint=eastwest;fontSize=12;" vertex="1" parent="xl6XmFLRlLza4RYkkyJD-98">
          <mxGeometry y="146" width="160" height="30" as="geometry" />
        </mxCell>
        <mxCell id="xl6XmFLRlLza4RYkkyJD-104" value="" style="edgeStyle=entityRelationEdgeStyle;fontSize=12;html=1;endArrow=ERoneToMany;" edge="1" parent="1" source="xl6XmFLRlLza4RYkkyJD-15" target="xl6XmFLRlLza4RYkkyJD-23">
          <mxGeometry width="100" height="100" relative="1" as="geometry">
            <mxPoint x="310" y="280" as="sourcePoint" />
            <mxPoint x="410" y="180" as="targetPoint" />
          </mxGeometry>
        </mxCell>
        <mxCell id="xl6XmFLRlLza4RYkkyJD-105" value="" style="edgeStyle=entityRelationEdgeStyle;fontSize=12;html=1;endArrow=ERoneToMany;exitX=1;exitY=0.5;exitDx=0;exitDy=0;entryX=0;entryY=0.5;entryDx=0;entryDy=0;" edge="1" parent="1" source="xl6XmFLRlLza4RYkkyJD-21" target="xl6XmFLRlLza4RYkkyJD-41">
          <mxGeometry width="100" height="100" relative="1" as="geometry">
            <mxPoint x="310" y="280" as="sourcePoint" />
            <mxPoint x="410" y="180" as="targetPoint" />
          </mxGeometry>
        </mxCell>
        <mxCell id="xl6XmFLRlLza4RYkkyJD-106" value="" style="edgeStyle=entityRelationEdgeStyle;fontSize=12;html=1;endArrow=ERoneToMany;exitX=0;exitY=0.5;exitDx=0;exitDy=0;" edge="1" parent="1" source="xl6XmFLRlLza4RYkkyJD-46" target="xl6XmFLRlLza4RYkkyJD-42">
          <mxGeometry width="100" height="100" relative="1" as="geometry">
            <mxPoint x="730" y="50" as="sourcePoint" />
            <mxPoint x="660" y="180" as="targetPoint" />
          </mxGeometry>
        </mxCell>
        <mxCell id="xl6XmFLRlLza4RYkkyJD-107" value="" style="edgeStyle=entityRelationEdgeStyle;fontSize=12;html=1;endArrow=ERoneToMany;" edge="1" parent="1" source="xl6XmFLRlLza4RYkkyJD-46" target="xl6XmFLRlLza4RYkkyJD-57">
          <mxGeometry width="100" height="100" relative="1" as="geometry">
            <mxPoint x="970" y="290" as="sourcePoint" />
            <mxPoint x="1070" y="190" as="targetPoint" />
          </mxGeometry>
        </mxCell>
        <mxCell id="xl6XmFLRlLza4RYkkyJD-108" value="" style="edgeStyle=entityRelationEdgeStyle;fontSize=12;html=1;endArrow=ERoneToMany;" edge="1" parent="1" source="xl6XmFLRlLza4RYkkyJD-46" target="xl6XmFLRlLza4RYkkyJD-82">
          <mxGeometry width="100" height="100" relative="1" as="geometry">
            <mxPoint x="970" y="290" as="sourcePoint" />
            <mxPoint x="1070" y="190" as="targetPoint" />
          </mxGeometry>
        </mxCell>
        <mxCell id="xl6XmFLRlLza4RYkkyJD-109" value="" style="edgeStyle=entityRelationEdgeStyle;fontSize=12;html=1;endArrow=ERoneToMany;" edge="1" parent="1" source="xl6XmFLRlLza4RYkkyJD-73" target="xl6XmFLRlLza4RYkkyJD-51">
          <mxGeometry width="100" height="100" relative="1" as="geometry">
            <mxPoint x="970" y="420" as="sourcePoint" />
            <mxPoint x="1070" y="320" as="targetPoint" />
          </mxGeometry>
        </mxCell>
        <mxCell id="xl6XmFLRlLza4RYkkyJD-110" value="" style="edgeStyle=entityRelationEdgeStyle;fontSize=12;html=1;endArrow=ERoneToMany;" edge="1" parent="1" source="xl6XmFLRlLza4RYkkyJD-67" target="xl6XmFLRlLza4RYkkyJD-52">
          <mxGeometry width="100" height="100" relative="1" as="geometry">
            <mxPoint x="670" y="420" as="sourcePoint" />
            <mxPoint x="770" y="320" as="targetPoint" />
          </mxGeometry>
        </mxCell>
        <mxCell id="xl6XmFLRlLza4RYkkyJD-112" value="" style="edgeStyle=entityRelationEdgeStyle;fontSize=12;html=1;endArrow=ERoneToMany;" edge="1" parent="1" source="xl6XmFLRlLza4RYkkyJD-62" target="xl6XmFLRlLza4RYkkyJD-58">
          <mxGeometry width="100" height="100" relative="1" as="geometry">
            <mxPoint x="1120" y="120" as="sourcePoint" />
            <mxPoint x="1220" y="20" as="targetPoint" />
          </mxGeometry>
        </mxCell>
        <mxCell id="xl6XmFLRlLza4RYkkyJD-113" value="role_user" style="swimlane;fontStyle=0;childLayout=stackLayout;horizontal=1;startSize=26;horizontalStack=0;resizeParent=1;resizeParentMax=0;resizeLast=0;collapsible=1;marginBottom=0;align=center;fontSize=14;" vertex="1" parent="1">
          <mxGeometry x="1160" y="1350" width="160" height="176" as="geometry" />
        </mxCell>
        <mxCell id="xl6XmFLRlLza4RYkkyJD-114" value="id" style="text;strokeColor=none;fillColor=none;spacingLeft=4;spacingRight=4;overflow=hidden;rotatable=0;points=[[0,0.5],[1,0.5]];portConstraint=eastwest;fontSize=12;fontStyle=1" vertex="1" parent="xl6XmFLRlLza4RYkkyJD-113">
          <mxGeometry y="26" width="160" height="30" as="geometry" />
        </mxCell>
        <mxCell id="xl6XmFLRlLza4RYkkyJD-115" value="user_id" style="text;strokeColor=none;fillColor=none;spacingLeft=4;spacingRight=4;overflow=hidden;rotatable=0;points=[[0,0.5],[1,0.5]];portConstraint=eastwest;fontSize=12;" vertex="1" parent="xl6XmFLRlLza4RYkkyJD-113">
          <mxGeometry y="56" width="160" height="30" as="geometry" />
        </mxCell>
        <mxCell id="xl6XmFLRlLza4RYkkyJD-116" value="role_id" style="text;strokeColor=none;fillColor=none;spacingLeft=4;spacingRight=4;overflow=hidden;rotatable=0;points=[[0,0.5],[1,0.5]];portConstraint=eastwest;fontSize=12;" vertex="1" parent="xl6XmFLRlLza4RYkkyJD-113">
          <mxGeometry y="86" width="160" height="30" as="geometry" />
        </mxCell>
        <mxCell id="xl6XmFLRlLza4RYkkyJD-117" value="created_at" style="text;strokeColor=none;fillColor=none;spacingLeft=4;spacingRight=4;overflow=hidden;rotatable=0;points=[[0,0.5],[1,0.5]];portConstraint=eastwest;fontSize=12;" vertex="1" parent="xl6XmFLRlLza4RYkkyJD-113">
          <mxGeometry y="116" width="160" height="30" as="geometry" />
        </mxCell>
        <mxCell id="xl6XmFLRlLza4RYkkyJD-118" value="updated_at" style="text;strokeColor=none;fillColor=none;spacingLeft=4;spacingRight=4;overflow=hidden;rotatable=0;points=[[0,0.5],[1,0.5]];portConstraint=eastwest;fontSize=12;" vertex="1" parent="xl6XmFLRlLza4RYkkyJD-113">
          <mxGeometry y="146" width="160" height="30" as="geometry" />
        </mxCell>
        <mxCell id="xl6XmFLRlLza4RYkkyJD-119" value="role" style="swimlane;fontStyle=0;childLayout=stackLayout;horizontal=1;startSize=26;horizontalStack=0;resizeParent=1;resizeParentMax=0;resizeLast=0;collapsible=1;marginBottom=0;align=center;fontSize=14;" vertex="1" parent="1">
          <mxGeometry x="870" y="1350" width="160" height="176" as="geometry" />
        </mxCell>
        <mxCell id="xl6XmFLRlLza4RYkkyJD-120" value="id" style="text;strokeColor=none;fillColor=none;spacingLeft=4;spacingRight=4;overflow=hidden;rotatable=0;points=[[0,0.5],[1,0.5]];portConstraint=eastwest;fontSize=12;fontStyle=1" vertex="1" parent="xl6XmFLRlLza4RYkkyJD-119">
          <mxGeometry y="26" width="160" height="30" as="geometry" />
        </mxCell>
        <mxCell id="xl6XmFLRlLza4RYkkyJD-121" value="name" style="text;strokeColor=none;fillColor=none;spacingLeft=4;spacingRight=4;overflow=hidden;rotatable=0;points=[[0,0.5],[1,0.5]];portConstraint=eastwest;fontSize=12;" vertex="1" parent="xl6XmFLRlLza4RYkkyJD-119">
          <mxGeometry y="56" width="160" height="30" as="geometry" />
        </mxCell>
        <mxCell id="xl6XmFLRlLza4RYkkyJD-122" value="display_name" style="text;strokeColor=none;fillColor=none;spacingLeft=4;spacingRight=4;overflow=hidden;rotatable=0;points=[[0,0.5],[1,0.5]];portConstraint=eastwest;fontSize=12;" vertex="1" parent="xl6XmFLRlLza4RYkkyJD-119">
          <mxGeometry y="86" width="160" height="30" as="geometry" />
        </mxCell>
        <mxCell id="xl6XmFLRlLza4RYkkyJD-123" value="created_at" style="text;strokeColor=none;fillColor=none;spacingLeft=4;spacingRight=4;overflow=hidden;rotatable=0;points=[[0,0.5],[1,0.5]];portConstraint=eastwest;fontSize=12;" vertex="1" parent="xl6XmFLRlLza4RYkkyJD-119">
          <mxGeometry y="116" width="160" height="30" as="geometry" />
        </mxCell>
        <mxCell id="xl6XmFLRlLza4RYkkyJD-129" value="updated_at" style="text;strokeColor=none;fillColor=none;spacingLeft=4;spacingRight=4;overflow=hidden;rotatable=0;points=[[0,0.5],[1,0.5]];portConstraint=eastwest;fontSize=12;" vertex="1" parent="xl6XmFLRlLza4RYkkyJD-119">
          <mxGeometry y="146" width="160" height="30" as="geometry" />
        </mxCell>
        <mxCell id="xl6XmFLRlLza4RYkkyJD-130" value="permission_role" style="swimlane;fontStyle=0;childLayout=stackLayout;horizontal=1;startSize=26;horizontalStack=0;resizeParent=1;resizeParentMax=0;resizeLast=0;collapsible=1;marginBottom=0;align=center;fontSize=14;" vertex="1" parent="1">
          <mxGeometry x="610" y="1350" width="160" height="176" as="geometry" />
        </mxCell>
        <mxCell id="xl6XmFLRlLza4RYkkyJD-131" value="id" style="text;strokeColor=none;fillColor=none;spacingLeft=4;spacingRight=4;overflow=hidden;rotatable=0;points=[[0,0.5],[1,0.5]];portConstraint=eastwest;fontSize=12;fontStyle=1" vertex="1" parent="xl6XmFLRlLza4RYkkyJD-130">
          <mxGeometry y="26" width="160" height="30" as="geometry" />
        </mxCell>
        <mxCell id="xl6XmFLRlLza4RYkkyJD-132" value="permission_id" style="text;strokeColor=none;fillColor=none;spacingLeft=4;spacingRight=4;overflow=hidden;rotatable=0;points=[[0,0.5],[1,0.5]];portConstraint=eastwest;fontSize=12;" vertex="1" parent="xl6XmFLRlLza4RYkkyJD-130">
          <mxGeometry y="56" width="160" height="30" as="geometry" />
        </mxCell>
        <mxCell id="xl6XmFLRlLza4RYkkyJD-133" value="role_id" style="text;strokeColor=none;fillColor=none;spacingLeft=4;spacingRight=4;overflow=hidden;rotatable=0;points=[[0,0.5],[1,0.5]];portConstraint=eastwest;fontSize=12;" vertex="1" parent="xl6XmFLRlLza4RYkkyJD-130">
          <mxGeometry y="86" width="160" height="30" as="geometry" />
        </mxCell>
        <mxCell id="xl6XmFLRlLza4RYkkyJD-134" value="created_at" style="text;strokeColor=none;fillColor=none;spacingLeft=4;spacingRight=4;overflow=hidden;rotatable=0;points=[[0,0.5],[1,0.5]];portConstraint=eastwest;fontSize=12;" vertex="1" parent="xl6XmFLRlLza4RYkkyJD-130">
          <mxGeometry y="116" width="160" height="30" as="geometry" />
        </mxCell>
        <mxCell id="xl6XmFLRlLza4RYkkyJD-135" value="updated_at" style="text;strokeColor=none;fillColor=none;spacingLeft=4;spacingRight=4;overflow=hidden;rotatable=0;points=[[0,0.5],[1,0.5]];portConstraint=eastwest;fontSize=12;" vertex="1" parent="xl6XmFLRlLza4RYkkyJD-130">
          <mxGeometry y="146" width="160" height="30" as="geometry" />
        </mxCell>
        <mxCell id="xl6XmFLRlLza4RYkkyJD-136" value="permissions" style="swimlane;fontStyle=0;childLayout=stackLayout;horizontal=1;startSize=26;horizontalStack=0;resizeParent=1;resizeParentMax=0;resizeLast=0;collapsible=1;marginBottom=0;align=center;fontSize=14;" vertex="1" parent="1">
          <mxGeometry x="360" y="1540" width="160" height="176" as="geometry" />
        </mxCell>
        <mxCell id="xl6XmFLRlLza4RYkkyJD-137" value="id" style="text;strokeColor=none;fillColor=none;spacingLeft=4;spacingRight=4;overflow=hidden;rotatable=0;points=[[0,0.5],[1,0.5]];portConstraint=eastwest;fontSize=12;fontStyle=1" vertex="1" parent="xl6XmFLRlLza4RYkkyJD-136">
          <mxGeometry y="26" width="160" height="30" as="geometry" />
        </mxCell>
        <mxCell id="xl6XmFLRlLza4RYkkyJD-138" value="name" style="text;strokeColor=none;fillColor=none;spacingLeft=4;spacingRight=4;overflow=hidden;rotatable=0;points=[[0,0.5],[1,0.5]];portConstraint=eastwest;fontSize=12;" vertex="1" parent="xl6XmFLRlLza4RYkkyJD-136">
          <mxGeometry y="56" width="160" height="30" as="geometry" />
        </mxCell>
        <mxCell id="xl6XmFLRlLza4RYkkyJD-139" value="display_name" style="text;strokeColor=none;fillColor=none;spacingLeft=4;spacingRight=4;overflow=hidden;rotatable=0;points=[[0,0.5],[1,0.5]];portConstraint=eastwest;fontSize=12;" vertex="1" parent="xl6XmFLRlLza4RYkkyJD-136">
          <mxGeometry y="86" width="160" height="30" as="geometry" />
        </mxCell>
        <mxCell id="xl6XmFLRlLza4RYkkyJD-140" value="created_at" style="text;strokeColor=none;fillColor=none;spacingLeft=4;spacingRight=4;overflow=hidden;rotatable=0;points=[[0,0.5],[1,0.5]];portConstraint=eastwest;fontSize=12;" vertex="1" parent="xl6XmFLRlLza4RYkkyJD-136">
          <mxGeometry y="116" width="160" height="30" as="geometry" />
        </mxCell>
        <mxCell id="xl6XmFLRlLza4RYkkyJD-141" value="updated_at" style="text;strokeColor=none;fillColor=none;spacingLeft=4;spacingRight=4;overflow=hidden;rotatable=0;points=[[0,0.5],[1,0.5]];portConstraint=eastwest;fontSize=12;" vertex="1" parent="xl6XmFLRlLza4RYkkyJD-136">
          <mxGeometry y="146" width="160" height="30" as="geometry" />
        </mxCell>
        <mxCell id="xl6XmFLRlLza4RYkkyJD-142" value="user" style="swimlane;fontStyle=0;childLayout=stackLayout;horizontal=1;startSize=26;horizontalStack=0;resizeParent=1;resizeParentMax=0;resizeLast=0;collapsible=1;marginBottom=0;align=center;fontSize=14;" vertex="1" parent="1">
          <mxGeometry x="1140" y="1660" width="160" height="206" as="geometry" />
        </mxCell>
        <mxCell id="xl6XmFLRlLza4RYkkyJD-143" value="id" style="text;strokeColor=none;fillColor=none;spacingLeft=4;spacingRight=4;overflow=hidden;rotatable=0;points=[[0,0.5],[1,0.5]];portConstraint=eastwest;fontSize=12;fontStyle=1" vertex="1" parent="xl6XmFLRlLza4RYkkyJD-142">
          <mxGeometry y="26" width="160" height="30" as="geometry" />
        </mxCell>
        <mxCell id="xl6XmFLRlLza4RYkkyJD-144" value="name" style="text;strokeColor=none;fillColor=none;spacingLeft=4;spacingRight=4;overflow=hidden;rotatable=0;points=[[0,0.5],[1,0.5]];portConstraint=eastwest;fontSize=12;" vertex="1" parent="xl6XmFLRlLza4RYkkyJD-142">
          <mxGeometry y="56" width="160" height="30" as="geometry" />
        </mxCell>
        <mxCell id="xl6XmFLRlLza4RYkkyJD-145" value="email" style="text;strokeColor=none;fillColor=none;spacingLeft=4;spacingRight=4;overflow=hidden;rotatable=0;points=[[0,0.5],[1,0.5]];portConstraint=eastwest;fontSize=12;" vertex="1" parent="xl6XmFLRlLza4RYkkyJD-142">
          <mxGeometry y="86" width="160" height="30" as="geometry" />
        </mxCell>
        <mxCell id="xl6XmFLRlLza4RYkkyJD-146" value="password" style="text;strokeColor=none;fillColor=none;spacingLeft=4;spacingRight=4;overflow=hidden;rotatable=0;points=[[0,0.5],[1,0.5]];portConstraint=eastwest;fontSize=12;" vertex="1" parent="xl6XmFLRlLza4RYkkyJD-142">
          <mxGeometry y="116" width="160" height="30" as="geometry" />
        </mxCell>
        <mxCell id="xl6XmFLRlLza4RYkkyJD-147" value="created_at" style="text;strokeColor=none;fillColor=none;spacingLeft=4;spacingRight=4;overflow=hidden;rotatable=0;points=[[0,0.5],[1,0.5]];portConstraint=eastwest;fontSize=12;" vertex="1" parent="xl6XmFLRlLza4RYkkyJD-142">
          <mxGeometry y="146" width="160" height="30" as="geometry" />
        </mxCell>
        <mxCell id="xl6XmFLRlLza4RYkkyJD-148" value="updated_at" style="text;strokeColor=none;fillColor=none;spacingLeft=4;spacingRight=4;overflow=hidden;rotatable=0;points=[[0,0.5],[1,0.5]];portConstraint=eastwest;fontSize=12;" vertex="1" parent="xl6XmFLRlLza4RYkkyJD-142">
          <mxGeometry y="176" width="160" height="30" as="geometry" />
        </mxCell>
        <mxCell id="xl6XmFLRlLza4RYkkyJD-149" value="" style="edgeStyle=entityRelationEdgeStyle;fontSize=12;html=1;endArrow=ERoneToMany;" edge="1" parent="1" source="xl6XmFLRlLza4RYkkyJD-143" target="xl6XmFLRlLza4RYkkyJD-115">
          <mxGeometry width="100" height="100" relative="1" as="geometry">
            <mxPoint x="1110" y="1720" as="sourcePoint" />
            <mxPoint x="1210" y="1620" as="targetPoint" />
          </mxGeometry>
        </mxCell>
        <mxCell id="xl6XmFLRlLza4RYkkyJD-150" value="" style="edgeStyle=entityRelationEdgeStyle;fontSize=12;html=1;endArrow=ERoneToMany;" edge="1" parent="1" source="xl6XmFLRlLza4RYkkyJD-120" target="xl6XmFLRlLza4RYkkyJD-116">
          <mxGeometry width="100" height="100" relative="1" as="geometry">
            <mxPoint x="1110" y="1640" as="sourcePoint" />
            <mxPoint x="1210" y="1540" as="targetPoint" />
          </mxGeometry>
        </mxCell>
        <mxCell id="xl6XmFLRlLza4RYkkyJD-151" value="" style="edgeStyle=entityRelationEdgeStyle;fontSize=12;html=1;endArrow=ERoneToMany;" edge="1" parent="1" source="xl6XmFLRlLza4RYkkyJD-120" target="xl6XmFLRlLza4RYkkyJD-133">
          <mxGeometry width="100" height="100" relative="1" as="geometry">
            <mxPoint x="830" y="1640" as="sourcePoint" />
            <mxPoint x="930" y="1540" as="targetPoint" />
          </mxGeometry>
        </mxCell>
        <mxCell id="xl6XmFLRlLza4RYkkyJD-152" value="" style="edgeStyle=entityRelationEdgeStyle;fontSize=12;html=1;endArrow=ERoneToMany;" edge="1" parent="1" source="xl6XmFLRlLza4RYkkyJD-137" target="xl6XmFLRlLza4RYkkyJD-132">
          <mxGeometry width="100" height="100" relative="1" as="geometry">
            <mxPoint x="830" y="1640" as="sourcePoint" />
            <mxPoint x="930" y="1540" as="targetPoint" />
          </mxGeometry>
        </mxCell>
      </root>
    </mxGraphModel>
  </diagram>
</mxfile>
